<?xml version="1.0" standalone="no"?>
<!DOCTYPE svg PUBLIC "-//W3C//DTD SVG 20010904//EN"
 "http://www.w3.org/TR/2001/REC-SVG-20010904/DTD/svg10.dtd">
<svg version="1.0" xmlns="http://www.w3.org/2000/svg"
 width="16.000000pt" height="16.000000pt" viewBox="0 0 16.000000 16.000000"
 preserveAspectRatio="xMidYMid meet">
<metadata>
Created by potrace 1.11, written by Peter Selinger 2001-2013
</metadata>
<g transform="translate(0.000000,16.000000) scale(0.002343,-0.002343)"
fill="#000000" stroke="none">
<path d="M3068 6826 c-1 -2 -28 -6 -58 -10 -30 -3 -82 -10 -115 -15 -33 -6
-78 -12 -100 -16 -82 -12 -335 -78 -465 -122 -334 -112 -651 -276 -930 -482
-41 -30 -80 -60 -86 -65 -6 -6 -29 -24 -50 -41 -112 -88 -301 -268 -392 -375
-17 -19 -42 -48 -57 -65 -61 -69 -206 -268 -276 -380 -144 -227 -254 -457
-342 -712 -41 -119 -109 -368 -122 -447 -3 -17 -7 -42 -10 -56 -5 -26 -7 -36
-24 -150 -26 -166 -36 -569 -18 -760 51 -566 238 -1101 556 -1590 19 -30 38
-57 41 -60 4 -3 21 -27 40 -55 28 -42 94 -126 170 -218 15 -19 49 -55 131
-143 62 -66 198 -194 257 -241 26 -21 63 -53 82 -70 19 -18 39 -33 43 -33 4 0
18 -9 30 -21 21 -19 179 -126 297 -201 76 -48 317 -169 425 -214 330 -136 670
-221 1015 -252 103 -9 498 -9 591 1 98 9 151 16 219 27 30 6 73 12 95 16 72
10 288 64 405 100 237 74 510 197 735 332 79 47 271 177 285 192 3 3 21 17 40
30 19 13 42 31 50 40 8 9 29 26 45 39 117 89 364 340 473 480 84 108 117 154
189 263 45 70 83 132 83 137 0 6 4 11 9 11 15 0 197 380 250 522 84 226 164
537 186 723 3 28 8 59 10 70 26 123 26 747 0 828 -2 7 -6 35 -9 62 -6 48 -8
66 -22 145 -13 73 -16 89 -54 235 -63 241 -128 417 -237 644 -71 147 -203 373
-266 456 -4 6 -40 53 -80 106 -74 99 -130 168 -181 223 -163 176 -274 279
-431 402 -489 384 -1054 618 -1685 699 -91 12 -730 21 -742 11z"/>
</g>
</svg>
